<svg class="svg-icon" style="width: 1em; height: 1em;vertical-align: middle;fill: currentColor;overflow: hidden;" viewBox="0 0 1024 1024" version="1.1" xmlns="http://www.w3.org/2000/svg"><path d="M713.617211 268.571429v58.285714q0 8-5.142857 13.142857t-13.142857 5.142857H599.331497q-13.142857 82.285714-73.714286 133.714286T367.902926 541.714286q95.428571 101.714286 262.285714 306.285714 8 9.142857 2.285714 19.428571-4.571429 10.285714-16.571428 10.285715H504.474354q-9.142857 0-14.285714-6.857143Q315.331497 661.142857 205.617211 544.571429q-5.142857-5.142857-5.142857-12.571429V459.428571q0-7.428571 5.428572-12.857142T218.760069 441.142857h64q75.428571 0 121.428571-24.571428T462.760069 345.142857H218.760069q-8 0-13.142858-5.142857t-5.142857-13.142857V268.571429q0-8 5.142857-13.142858t13.142858-5.142857h236q-32.571429-64.571429-153.142858-64.571428H218.760069q-7.428571 0-12.857143-5.428572T200.474354 167.428571V91.428571q0-8 5.142857-13.142857t13.142858-5.142857h475.428571q8 0 13.142857 5.142857t5.142857 13.142857v58.285715q0 8-5.142857 13.142857t-13.142857 5.142857H561.045783q26.857143 34.857143 36.571428 82.285714h97.714286q8 0 13.142857 5.142857t5.142857 13.142858z"  /></svg>